<?xml version="1.0" encoding="UTF-8" standalone="no"?>
<svg
   xmlns:dc="http://purl.org/dc/elements/1.1/"
   xmlns:cc="http://creativecommons.org/ns#"
   xmlns:rdf="http://www.w3.org/1999/02/22-rdf-syntax-ns#"
   xmlns:svg="http://www.w3.org/2000/svg"
   xmlns="http://www.w3.org/2000/svg"
   xmlns:sodipodi="http://sodipodi.sourceforge.net/DTD/sodipodi-0.dtd"
   xmlns:inkscape="http://www.inkscape.org/namespaces/inkscape"
   width="168"
   height="51.702698"
   viewBox="0 0 168 51.702698"
   version="1.1"
   id="svg22"
   sodipodi:docname="logo.svg"
   inkscape:version="0.92.1 r15371">
  <metadata
     id="metadata26">
    <rdf:RDF>
      <cc:Work
         rdf:about="">
        <dc:format>image/svg+xml</dc:format>
        <dc:type
           rdf:resource="http://purl.org/dc/dcmitype/StillImage" />
        <dc:title></dc:title>
      </cc:Work>
    </rdf:RDF>
  </metadata>
  <sodipodi:namedview
     pagecolor="#ffffff"
     bordercolor="#666666"
     borderopacity="1"
     objecttolerance="10"
     gridtolerance="10"
     guidetolerance="10"
     inkscape:pageopacity="0"
     inkscape:pageshadow="2"
     inkscape:window-width="640"
     inkscape:window-height="480"
     id="namedview24"
     showgrid="false"
     fit-margin-top="0"
     fit-margin-left="0"
     fit-margin-right="0"
     fit-margin-bottom="0"
     inkscape:zoom="2.2619048"
     inkscape:cx="84"
     inkscape:cy="25.719124"
     inkscape:window-x="172"
     inkscape:window-y="95"
     inkscape:window-maximized="0"
     inkscape:current-layer="svg22" />
  <defs
     id="defs12">
    <linearGradient
       id="sm-logo-a"
       x1="7.7618235"
       x2="7.7618235"
       y1="15.531182"
       y2="-7.0372914e-005"
       gradientTransform="scale(0.76099479,1.3140694)"
       gradientUnits="userSpaceOnUse">
      <stop
         offset="0%"
         stop-color="#1070BB"
         id="stop2" />
      <stop
         offset="100%"
         stop-color="#32CEE3"
         id="stop4" />
    </linearGradient>
    <linearGradient
       id="sm-logo-b"
       x1="13.880056"
       x2="13.880056"
       y1="36.677693"
       y2="8.923129"
       gradientTransform="scale(0.70917082,1.4100975)"
       gradientUnits="userSpaceOnUse">
      <stop
         offset="0%"
         stop-color="#1646BB"
         id="stop7" />
      <stop
         offset="100%"
         stop-color="#3265E3"
         id="stop9" />
    </linearGradient>
  </defs>
  <g
     id="g20"
     style="fill:none;fill-rule:evenodd"
     transform="translate(0,-0.01642555)">
    <path
       d="M 0,8.6691971 11.809636,20.409051 V 2.190073 C 11.809105,1.3108179 11.276067,0.51837424 10.458882,0.18196934 9.6416982,-0.15443557 8.701143,0.03138342 8.0754546,0.65284671 Z"
       id="path14"
       inkscape:connector-curvature="0"
       style="fill:url(#sm-logo-a);fill-rule:nonzero" />
    <path
       d="M 0,12.582482 19.682727,32.148905 0,51.719124 v -9.94073 C 0.00331119,40.62889 0.46460452,39.527509 1.2829091,38.715328 L 7.8730909,32.148905 1.2829091,25.597664 C 0.46180235,24.782693 2.7772443e-4,23.676663 0,22.523212 Z"
       id="path16"
       inkscape:connector-curvature="0"
       style="fill:url(#sm-logo-b);fill-rule:nonzero" />
    <path
       d="m 46.803273,26.015183 c 0.07724,0.06045 0.122328,0.152783 0.122328,0.25051 0,0.09773 -0.04509,0.190058 -0.122328,0.250511 l -1.305818,1.628321 c -0.06686,0.09695 -0.175144,0.157635 -0.2932,0.16432 -0.118056,0.0067 -0.232566,-0.04138 -0.310073,-0.130159 -1.663555,-1.423969 -3.79992,-2.182835 -5.994546,-2.129343 -2.810181,0 -4.284,0.759124 -4.284,2.193869 0,1.366423 1.974,2.000292 4.822364,2.364671 4.650546,0.531387 8.018182,1.89781 8.018182,5.757956 0,3.628614 -3.650182,5.522628 -8.132728,5.522628 -3.348545,0 -6.227454,-0.895766 -8.506909,-3.036496 -0.08089,-0.072 -0.12712,-0.174836 -0.12712,-0.282774 0,-0.107938 0.04623,-0.210772 0.12712,-0.282774 l 1.305819,-1.628321 c 0.05828,-0.115056 0.171275,-0.192877 0.300112,-0.206682 0.128837,-0.0138 0.255924,0.03829 0.337524,0.138361 1.874727,1.730803 3.982364,2.463358 6.563454,2.463358 3.344728,0 5.120182,-1.138686 5.120182,-2.694891 0,-1.764963 -2.042727,-2.395036 -5.391272,-2.797372 -3.848728,-0.432701 -7.430182,-1.495475 -7.430182,-5.313869 0,-3.036496 2.913272,-5.025401 7.365272,-5.025401 2.825455,-0.0038 5.773091,0.929927 7.815819,2.793577 z M 59.258182,23.21781 c 5.322545,0 9.163636,3.928467 9.163636,9.352409 v 0.967883 c 0,0.296059 -0.133636,0.432701 -0.400909,0.432701 H 52.962 c 0.504,2.960584 2.844545,5.089927 6.460364,5.089927 2.290909,0 4.020545,-0.633869 5.925818,-2.197664 0.202363,-0.163212 0.381818,-0.132847 0.538363,0.102481 L 67.158,38.563504 c 0.08439,0.08198 0.125908,0.198153 0.112467,0.31469 -0.01344,0.116538 -0.08033,0.220351 -0.181194,0.281222 -2.13722,1.80546 -4.862614,2.775569 -7.666909,2.729051 -5.757818,0 -9.640909,-3.958832 -9.640909,-9.318248 0,-5.423942 4.054909,-9.352409 9.476727,-9.352409 z m -6.330546,7.970803 h 12.39 c -0.416396,-2.990625 -3.023211,-5.19504 -6.059454,-5.124088 -3.318,-0.01518 -5.895273,2.114161 -6.330546,5.108906 z M 74.355273,17.89635 c 0.129968,-0.01997 0.261844,0.02172 0.356325,0.112664 0.09448,0.09094 0.140656,0.220625 0.124766,0.350402 v 22.800292 c 0.01358,0.127156 -0.03166,0.253563 -0.122991,0.343611 -0.09133,0.09005 -0.218849,0.133993 -0.346646,0.119455 h -2.107636 c -0.127797,0.01454 -0.25532,-0.02941 -0.346646,-0.119455 -0.09133,-0.09005 -0.136572,-0.216455 -0.12299,-0.343611 V 18.359416 c -0.0151,-0.127512 0.02965,-0.254841 0.121348,-0.345257 0.0917,-0.09042 0.220146,-0.133863 0.348288,-0.117809 z m 7.063636,0 c 0.128142,-0.01605 0.256589,0.02739 0.348288,0.117809 0.0917,0.09042 0.136452,0.217745 0.121349,0.345257 v 22.800292 c 0.01358,0.127156 -0.03166,0.253563 -0.122991,0.343611 -0.09133,0.09005 -0.218849,0.133993 -0.346646,0.119455 h -2.107636 c -0.127797,0.01454 -0.25532,-0.02941 -0.346646,-0.119455 -0.09133,-0.09005 -0.136572,-0.216455 -0.122991,-0.343611 V 18.359416 c -0.0151,-0.127512 0.02965,-0.254841 0.121349,-0.345257 0.0917,-0.09042 0.220146,-0.133863 0.348288,-0.117809 z m 25.108361,5.590949 c 0.30164,0 0.43528,0.163212 0.43528,0.463066 v 17.209343 c 0,0.296058 -0.13364,0.463066 -0.43528,0.463066 h -2.142 c -0.12779,0.01454 -0.25532,-0.02941 -0.34664,-0.119455 -0.0913,-0.09005 -0.13657,-0.216455 -0.12299,-0.343611 v -7.970803 l 0.168,-5.256934 h -0.168 l -2.73382,6.703065 -3.012547,6.524672 c -0.114413,0.269411 -0.374324,0.449535 -0.668182,0.463066 h -1.340182 c -0.293858,-0.01353 -0.553769,-0.193655 -0.668182,-0.463066 l -2.982,-6.490511 -2.859818,-6.722044 h -0.168 l 0.168,5.256935 v 7.970802 c 0,0.296059 -0.133636,0.463066 -0.400909,0.463066 h -2.111454 c -0.127797,0.01454 -0.25532,-0.02941 -0.346647,-0.119454 -0.09133,-0.09005 -0.136571,-0.216455 -0.12299,-0.343612 V 23.950365 c -0.0151,-0.127512 0.02965,-0.254841 0.121348,-0.345257 0.0917,-0.09042 0.220146,-0.133863 0.348289,-0.117809 h 3.115636 c 0.254101,0.02628 0.47289,0.189767 0.568909,0.42511 l 3.749455,8.217518 2.290909,5.226569 h 0.167999 L 99.54,31.2 l 3.318,-7.257226 c 0.13029,-0.285285 0.41794,-0.466989 0.73309,-0.463066 z m 13.188,-0.269489 c 5.28819,0 9.408,3.928467 9.408,9.352409 0,5.423942 -4.11981,9.318248 -9.408,9.318248 -5.28818,0 -9.408,-3.932263 -9.408,-9.318248 0,-5.385985 4.11982,-9.352409 9.408,-9.352409 z M 113.4,32.570219 c 0,3.727299 2.57727,6.490511 6.32673,6.490511 3.74945,0 6.32673,-2.763212 6.32673,-6.490511 0,-3.727299 -2.57728,-6.520876 -6.32673,-6.520876 -3.74946,0 -6.32673,2.759416 -6.32673,6.520876 z m 21.24818,-9.08292 c 0.1268,-0.02096 0.25651,0.01388 0.35544,0.09547 0.0989,0.08159 0.15732,0.201882 0.16002,0.329638 l 0.19854,1.461314 h 0.168 c 1.42108,-1.427878 3.37128,-2.210487 5.39127,-2.163504 3.58146,0 6.22746,2.098978 7.16291,5.393577 0.0687,0.231532 0,0.379562 -0.20236,0.4327 l -2.142,0.759124 c -0.168,0.06453 -0.30164,0 -0.40091,-0.201167 -0.80182,-2.030657 -2.04273,-3.560292 -4.52073,-3.560292 -2.17636,0 -3.91745,1.062773 -5.28818,2.793576 v 12.316788 c 0.0136,0.127157 -0.0317,0.253563 -0.12299,0.343612 -0.0913,0.09005 -0.21885,0.133993 -0.34665,0.119454 h -2.10763 c -0.12514,0.0042 -0.24649,-0.04308 -0.33539,-0.130732 -0.0889,-0.08766 -0.13748,-0.2079 -0.13425,-0.332334 v -17.19416 c -0.0151,-0.127512 0.0297,-0.254841 0.12135,-0.345257 0.0917,-0.09042 0.22015,-0.133863 0.34829,-0.117809 z m 24.18818,-0.269489 c 5.32637,0 9.16364,3.928467 9.16364,9.352409 v 0.967883 c 0,0.296059 -0.13364,0.432701 -0.40091,0.432701 h -15.06655 c 0.504,2.960584 2.84455,5.089927 6.46037,5.089927 2.29091,0 4.02054,-0.633869 5.92582,-2.197664 0.20236,-0.163212 0.38181,-0.132847 0.53836,0.102481 l 1.27145,1.597957 c 0.0844,0.08198 0.12591,0.198153 0.11247,0.31469 -0.0134,0.116538 -0.0803,0.220351 -0.18119,0.281222 -2.13722,1.80546 -4.86262,2.775569 -7.66691,2.729051 -5.75782,0 -9.64091,-3.958832 -9.64091,-9.318248 0,-5.423942 4.05109,-9.352409 9.48436,-9.352409 z m -6.32672,7.970803 h 12.39 c -0.41113,-2.99726 -3.02112,-5.209503 -6.06328,-5.13927 -3.32563,0 -5.90291,2.129343 -6.33818,5.124088 z"
       id="path18"
       inkscape:connector-curvature="0"
       style="fill:#192440;fill-rule:nonzero" />
  </g>
</svg>
